<?xml version="1.0" encoding="UTF-8"?>
<!-- Generator: visioncortex VTracer 0.6.4 -->
<svg version="1.1" xmlns="http://www.w3.org/2000/svg" width="400" height="400">
<path d="M0,0 L23,0 L40,2 L59,6 L84,14 L103,24 L111,28 L111,30 L116,32 L125,38 L138,49 L146,56 L156,67 L160,73 L164,77 L171,88 L181,105 L185,115 L189,124 L192,133 L197,153 L199,166 L200,178 L200,200 L198,219 L194,238 L187,259 L179,276 L173,287 L162,303 L156,311 L154,311 L152,315 L136,331 L134,331 L132,335 L114,348 L105,353 L88,362 L70,369 L57,373 L35,377 L22,378 L-1,378 L-25,375 L-49,369 L-59,365 L-70,360 L-84,353 L-102,341 L-115,330 L-125,321 L-137,307 L-147,293 L-148,289 L-150,289 L-159,272 L-165,259 L-172,237 L-177,212 L-178,200 L-178,178 L-176,158 L-172,140 L-165,119 L-158,103 L-155,98 L-148,86 L-137,71 L-128,61 L-110,43 L-92,30 L-79,22 L-59,13 L-48,9 L-35,5 L-13,1 Z M-40,62 L-62,77 L-84,92 L-92,97 L-95,102 L-100,138 L-103,161 L-105,178 L-106,180 L-110,212 L-113,231 L-116,252 L-118,271 L-118,276 L-114,282 L-96,286 L-85,288 L-62,293 L-47,296 L-29,299 L-24,301 L-2,305 L16,309 L30,312 L39,313 L51,316 L62,316 L70,311 L70,309 L75,307 L90,297 L100,290 L114,280 L117,276 L120,255 L124,223 L127,200 L129,189 L133,158 L137,130 L140,107 L139,100 L136,96 L116,92 L107,90 L95,87 L77,84 L57,80 L38,76 L28,74 L16,71 L-6,67 L-13,65 L-30,62 Z " fill="#F0F0F0" transform="translate(189,11)"/>
<path d="M0,0 L10,0 L31,4 L49,8 L64,11 L76,13 L91,17 L113,21 L128,24 L137,26 L154,29 L166,32 L176,34 L180,40 L179,53 L172,102 L168,135 L166,147 L162,175 L160,193 L157,214 L152,220 L137,230 L127,237 L112,247 L110,247 L110,249 L102,254 L91,254 L79,251 L66,249 L42,244 L22,240 L13,238 L5,236 L-12,233 L-37,228 L-48,225 L-65,222 L-74,220 L-78,214 L-77,201 L-75,186 L-71,155 L-68,136 L-66,118 L-65,116 L-63,99 L-60,76 L-55,40 L-52,35 L-41,28 L-25,17 L-9,6 Z M8,13 L6,25 L4,46 L36,53 L48,55 L73,60 L85,63 L105,67 L118,69 L124,68 L140,57 L156,46 L158,43 L152,41 L131,37 L123,35 L100,31 L76,25 L58,22 L30,16 L13,13 Z M-7,19 L-12,22 L-12,24 L-17,26 L-22,29 L-22,31 L-27,33 L-33,37 L-30,39 L-10,43 L-8,43 L-6,33 L-5,28 L-5,19 Z M-43,49 L-44,50 L-46,62 L-49,87 L-50,90 L-52,110 L-57,141 L-64,193 L-65,201 L-61,199 L-46,189 L-36,182 L-26,175 L-22,152 L-20,136 L-15,101 L-11,70 L-10,55 L-21,52 L-35,49 Z M164,54 L153,61 L153,63 L148,65 L132,76 L127,79 L123,111 L117,153 L115,168 L113,179 L111,199 L133,204 L138,205 L145,205 L146,204 L152,161 L154,144 L156,133 L158,118 L162,87 L164,76 L166,59 L166,54 Z M3,58 L1,64 L-2,89 L-4,104 L-7,121 L-9,138 L-11,150 L-13,167 L-13,173 L-6,175 L20,181 L36,184 L53,187 L65,190 L92,195 L100,196 L105,159 L107,147 L109,130 L111,114 L113,102 L115,81 L104,78 L91,76 L87,74 L70,71 L63,69 L45,66 L17,60 L7,58 Z M-20,185 L-32,193 L-44,201 L-55,209 L-56,211 L-40,215 L-23,218 L-13,220 L7,225 L17,226 L26,229 L36,230 L48,233 L76,239 L87,241 L94,241 L98,212 L98,208 L96,207 L82,205 L70,202 L33,195 L21,192 L-1,188 L-6,186 L-12,185 Z M109,211 L107,224 L107,235 L112,233 L127,222 L134,218 L134,216 L123,213 Z " fill="#111111" transform="translate(149,73)"/>
<path d="M0,0 L7,1 L38,7 L50,9 L63,12 L76,15 L86,17 L95,19 L110,22 L112,23 L110,44 L108,56 L106,72 L104,89 L102,101 L99,124 L97,138 L89,137 L56,131 L50,129 L33,126 L-1,119 L-9,117 L-16,115 L-15,103 L-13,85 L-11,74 L-8,49 L-7,46 L-4,20 L-1,1 Z " fill="#BAA1CC" transform="translate(152,131)"/>
<path d="M0,0 L8,0 L27,4 L33,6 L32,21 L28,52 L22,92 L20,109 L17,126 L7,133 L-3,140 L-19,151 L-22,152 L-19,129 L-13,87 L-8,53 L-7,41 L-5,30 L-3,13 L-1,1 Z " fill="#8FC3E0" transform="translate(106,122)"/>
<path d="M0,0 L2,0 L1,11 L-1,28 L-4,47 L-7,68 L-9,87 L-11,96 L-15,130 L-18,150 L-19,151 L-26,151 L-46,147 L-53,145 L-51,125 L-48,110 L-45,85 L-41,57 L-37,25 L-26,18 L-13,9 L-11,9 L-11,7 Z " fill="#F696AD" transform="translate(313,127)"/>
<path d="M0,0 L8,0 L17,2 L30,5 L59,11 L99,19 L106,21 L116,22 L118,23 L116,42 L114,56 L107,56 L76,50 L58,46 L56,45 L43,43 L37,41 L23,39 L7,35 L-11,32 L-34,27 L-36,25 L-27,18 L-12,8 Z " fill="#A3C2CA" transform="translate(129,258)"/>
<path d="M0,0 L11,1 L54,10 L71,13 L92,18 L115,22 L137,27 L148,29 L150,31 L141,38 L123,50 L114,56 L100,55 L84,51 L69,48 L53,45 L40,42 L9,36 L-4,33 L-2,12 Z " fill="#D695CB" transform="translate(157,86)"/>
<path d="M0,0 L2,0 L1,9 L-4,25 L-11,42 L-18,56 L-28,72 L-38,85 L-47,95 L-52,100 L-60,108 L-72,117 L-74,117 L-74,119 L-79,122 L-81,122 L-81,124 L-92,130 L-109,139 L-115,141 L-127,146 L-131,146 L-131,144 L-135,143 L-122,139 L-105,132 L-92,125 L-79,117 L-64,106 L-59,101 L-44,86 L-43,84 L-41,84 L-39,80 L-27,63 L-21,53 L-10,30 L-4,11 L-2,2 L0,2 Z " fill="#1C1C1C" transform="translate(386,238)"/>
<path d="M0,0 L6,0 L7,3 L-13,10 L-27,16 L-39,23 L-58,36 L-70,47 L-86,63 L-99,81 L-106,93 L-114,109 L-120,125 L-122,132 L-125,131 L-124,124 L-118,108 L-110,91 L-104,82 L-98,73 L-89,61 L-80,51 L-75,46 L-67,38 L-55,29 L-53,29 L-53,27 L-48,24 L-46,24 L-46,22 L-35,16 L-18,7 L-12,5 Z " fill="#1C1C1C" transform="translate(141,16)"/>
<path d="M0,0 L2,0 L3,4 L5,4 L14,18 L25,31 L32,39 L42,48 L51,55 L63,63 L80,73 L89,77 L103,82 L112,86 L113,89 L103,87 L83,79 L73,74 L62,68 L62,66 L57,64 L53,62 L53,60 L48,58 L37,49 L37,47 L34,47 L27,39 L20,32 L13,24 L2,8 L-1,4 Z " fill="#1B1B1B" transform="translate(36,296)"/>
<path d="M0,0 L2,0 L2,9 L0,22 L-1,24 L-14,22 L-26,19 L-22,15 L-17,12 L-15,12 L-15,10 L-7,5 L-5,5 L-5,3 Z " fill="#A7B4D9" transform="translate(142,92)"/>
<path d="M0,0 L14,2 L25,5 L25,7 L14,14 L0,24 L-2,24 L-2,13 Z " fill="#D9B4A8" transform="translate(258,284)"/>
<path d="M0,0 L10,1 L23,6 L34,11 L45,17 L53,21 L53,23 L58,25 L58,29 L53,27 L51,26 L51,24 L45,22 L29,14 L21,10 L-5,2 L-5,1 Z " fill="#202020" transform="translate(249,15)"/>
<path d="M0,0 L4,1 L4,3 L9,5 L20,14 L20,16 L23,16 L30,24 L37,31 L43,38 L43,44 L38,39 L29,28 L22,21 L8,10 L5,7 L0,4 Z " fill="#1C1C1C" transform="translate(307,41)"/>
<path d="M0,0 L11,0 L22,1 L45,1 L62,0 L61,4 L46,5 L22,5 L6,4 L-3,2 Z " fill="#171717" transform="translate(166,387)"/>
<path d="M0,0 L4,4 L14,19 L23,35 L22,38 L20,38 L10,20 L3,10 L0,5 Z " fill="#171717" transform="translate(350,80)"/>
<path d="M0,0 L3,0 L5,3 L10,26 L9,33 L8,42 L7,42 L5,24 L2,9 Z " fill="#202020" transform="translate(381,147)"/>
<path d="M0,0 L3,0 L2,7 L-2,29 L-3,42 L-4,42 L-5,36 L-6,36 L-6,26 L-2,6 Z " fill="#1A1A1A" transform="translate(15,147)"/>
<path d="M0,0 L10,0 L7,3 L-19,8 L-26,9 L-26,6 L-21,4 Z " fill="#151515" transform="translate(173,9)"/>
<path d="M0,0 L2,0 L9,25 L10,27 L10,33 L8,33 L2,18 L-1,7 L-1,1 Z " fill="#1A1A1A" transform="translate(14,240)"/>
<path d="M0,0 L7,0 L30,5 L28,7 L19,7 L2,4 L-9,3 L-9,2 Z " fill="#1D1D1D" transform="translate(221,9)"/>
<path d="M0,0 L3,3 L12,26 L12,33 L9,31 L2,11 L-1,6 Z " fill="#181818" transform="translate(372,116)"/>
<path d="M0,0 L24,0 L33,1 L30,3 L-8,4 L-5,1 Z " fill="#1E1E1E" transform="translate(188,8)"/>
<path d="M0,0 L1,0 L2,10 L2,34 L0,42 L-1,42 L-1,2 Z " fill="#111111" transform="translate(390,178)"/>
<path d="M0,0 L1,0 L1,39 L-1,40 L-2,30 L-2,6 Z " fill="#111111" transform="translate(10,182)"/>
<path d="M0,0 L3,4 L7,13 L13,24 L12,28 L10,28 L1,11 L-1,6 Z " fill="#1A1A1A" transform="translate(24,270)"/>
<path d="M0,0 L6,0 L6,2 L-1,5 L-16,8 L-22,8 L-21,5 L-9,2 Z " fill="#121212" transform="translate(249,382)"/>
<path d="M0,0 L1,0 L3,18 L4,29 L1,29 L-2,16 L-2,11 L-1,10 Z " fill="#212121" transform="translate(11,211)"/>
<path d="M0,0 L1,0 L2,7 L3,7 L3,16 L0,27 L-2,27 L-3,29 L-1,13 Z " fill="#1F1F1F" transform="translate(388,211)"/>
<path d="M0,0 L17,4 L24,5 L24,6 L19,7 L5,6 L2,5 Z " fill="#242424" transform="translate(147,381)"/>
</svg>
