<?xml version="1.0" encoding="UTF-8" standalone="no"?>
<svg
   xml:space="preserve"
   viewBox="0 0 133 133"
   version="1.1"
   id="svg2"
   sodipodi:docname="brasil.svg"
   inkscape:version="1.3.2 (091e20e, 2023-11-25)"
   width="133"
   height="133"
   inkscape:export-filename="brasil.png"
   inkscape:export-xdpi="433.0827"
   inkscape:export-ydpi="433.0827"
   xmlns:inkscape="http://www.inkscape.org/namespaces/inkscape"
   xmlns:sodipodi="http://sodipodi.sourceforge.net/DTD/sodipodi-0.dtd"
   xmlns="http://www.w3.org/2000/svg"
   xmlns:svg="http://www.w3.org/2000/svg"><defs
   id="defs2" /><sodipodi:namedview
   id="namedview2"
   pagecolor="#ffffff"
   bordercolor="#000000"
   borderopacity="0.25"
   inkscape:showpageshadow="2"
   inkscape:pageopacity="0.0"
   inkscape:pagecheckerboard="0"
   inkscape:deskcolor="#d1d1d1"
   inkscape:zoom="6.3118384"
   inkscape:cx="89.118251"
   inkscape:cy="69.710277"
   inkscape:window-width="1920"
   inkscape:window-height="1056"
   inkscape:window-x="0"
   inkscape:window-y="0"
   inkscape:window-maximized="1"
   inkscape:current-layer="svg2" />
  
  <path
   fill="#1559a5"
   d="m 124.99299,46.447975 c -1.15083,-4.46149 -2.55961,-4.612365 -6.70957,-4.958812 -0.12722,-0.01062 -0.24801,-0.06108 -0.34326,-0.146084 -0.96427,-0.860539 -6.44553,-5.74744 -7.56347,-6.744143 -0.12355,-0.11016 -0.28598,-0.162962 -0.45053,-0.144882 -1.04503,0.114826 -3.36352,0.18009 -4.3836,0.269938 -0.18576,0.01636 -0.36309,-0.0571 -0.48954,-0.194166 -1.24622,-1.350922 -5.24842,-2.769072 -6.85874,-1.505425 -0.28141,0.220833 -0.68634,0.166132 -0.86447,-0.144079 -0.48028,-0.836384 -1.27456,-2.219839 -1.74005,-3.030613 -0.154694,-0.269451 -0.491295,-0.371416 -0.768898,-0.231875 -1.595383,0.801957 -6.382721,-2.601675 -7.768776,-3.173013 -0.118858,-0.049 -0.247597,-0.05812 -0.372047,-0.02585 -0.209046,0.0542 -0.583046,0.151121 -0.94175,0.244074 -0.424507,0.110002 -0.815651,-0.266375 -0.722328,-0.694861 0.05708,-0.262104 -0.06811,-0.532022 -0.309158,-0.649725 -1.028779,-0.502348 -2.785439,-1.896585 -3.894532,-1.670141 -0.359848,0.07347 -0.704155,-0.198713 -0.704223,-0.566118 -2.14e-4,-1.351973 0.891609,-2.589387 0.400017,-3.956516 -0.17157,-0.477145 -0.495308,-0.891143 -0.886735,-1.213461 -0.113265,-0.09326 -0.237678,-0.181829 -0.381797,-0.209322 -0.184578,-0.03521 -0.371346,0.03433 -0.55867,0.05062 -1.416466,0.122814 -1.56633,-4.161081 -1.8443,-5.071302 -0.05571,-0.182446 -0.136642,-0.383689 -0.313659,-0.454799 -0.22432,-0.09011 -0.463425,0.07699 -0.644318,0.237367 -1.454399,1.289426 -2.894134,2.858823 -3.243202,4.839447 -0.06654,0.378424 -0.458855,0.597897 -0.813236,0.449428 -1.5532,-0.65071 -3.872948,-1.279213 -5.286473,-1.097068 -1.763458,0.341399 -4.541214,-2.028643 -3.474567,0.502667 0.185951,0.441292 -0.210468,0.914433 -0.675213,0.798985 -2.751816,-0.68358 -5.517055,-0.05624 -7.933632,1.54948 -0.124935,0.08301 -0.277145,0.120924 -0.424503,0.0929 -3.794953,-0.721729 -3.763752,-5.309496 -2.211998,-8.218222 0.12532,-0.234907 0.08233,-0.527995 -0.116509,-0.705055 -1.734577,-1.544599 0.314473,-3.8178708 -2.197322,-3.7020559 -0.312775,0.014422 -0.584717,0.2555785 -0.591378,0.5686178 -0.04544,2.1359072 -4.458362,3.1337971 -6.419693,3.8770661 -0.262405,0.09944 -0.551742,-7.76e-4 -0.704632,-0.236085 -0.561943,-0.86487 -3.043312,-1.089766 -4.50807,-1.2919365 -0.445467,-0.061485 -0.788866,0.3786355 -0.627378,0.7983285 1.555958,4.043846 2.750992,3.230111 4.125164,5.192882 0.199802,0.285388 0.107696,0.683105 -0.196899,0.852188 -1.260293,0.699596 -4.387211,2.435247 -5.852717,3.248699 -0.298921,0.165921 -0.69051,0.04876 -0.818001,-0.268466 -0.369421,-0.919196 -2.232834,-0.168438 -3.410087,0.151993 -0.360707,0.09818 -0.722201,-0.16439 -0.738238,-0.537876 -0.04298,-1.001122 -0.282097,-2.426971 -0.700298,-3.323361 -0.131073,-0.28095 -0.467649,-0.405015 -0.752516,-0.28269 -0.697313,0.299438 -1.974272,0.556846 -2.210939,1.153383 -0.10315,0.259997 -0.343052,0.437503 -0.620453,0.401623 -0.911219,-0.117861 -2.565352,-0.331734 -3.519775,-0.455133 -0.401431,-0.0519 -0.734215,0.309753 -0.651744,0.706034 0.205976,0.989735 0.807681,1.365893 1.899081,1.5723 0.235334,0.04451 0.423067,0.22928 0.469538,0.464235 0.492834,2.491726 -3.6568,-1.237078 -3.121703,2.630599 0.02323,0.167872 0.113844,0.320561 0.253854,0.416046 0.826476,0.563644 1.79233,0.795913 1.270058,1.670577 -0.115357,0.193192 -0.11598,0.447931 0.02396,0.624132 1.013805,1.276522 -1.122796,7.736204 -1.643494,9.898804 -0.07796,0.323778 -0.410308,0.518881 -0.730107,0.42594 -1.095427,-0.31836 -2.475206,-0.531647 -3.122074,0.538463 -0.122876,0.203276 -0.364711,0.297419 -0.598547,0.255711 -1.637285,-0.292046 -3.641024,0.471351 -4.685117,1.767681 -0.0698,0.08666 -0.110503,0.193911 -0.122424,0.304546 -0.211297,1.960936 -0.222217,3.810786 -2.09973,4.340895 -0.348996,0.09854 -0.53657,0.468308 -0.397094,0.803055 0.158118,0.379486 -0.06827,0.663353 -0.474976,0.976448 -0.231943,0.178558 -0.291563,0.503235 -0.148012,0.758327 0.54583,0.96996 1.794327,3.188538 2.266606,4.027775 0.11016,0.195751 0.08922,0.432553 -0.03836,0.61742 -1.140547,1.652646 1.328159,1.97678 2.53646,2.71299 0.129059,0.07863 0.284185,0.09922 0.431186,0.06414 0.692755,-0.165313 2.673673,-0.637684 3.765526,-0.898033 0.375945,-0.08964 0.734695,0.201344 0.724627,0.587696 l -0.08749,3.357258 c -0.0085,0.324451 0.24604,0.592315 0.570426,0.602993 1.798529,0.05922 5.48729,0.792778 6.442038,-0.604683 0.145159,-0.212467 0.417265,-0.319927 0.659824,-0.234028 2.210465,0.782783 8.105048,-5.327686 7.783228,-0.699909 -0.01155,0.166126 -0.07991,0.331314 -0.210342,0.434848 -0.382206,0.303387 -0.172735,0.693287 0.09772,1.061997 0.159845,0.217915 0.176233,0.524425 0.0014,0.730484 -0.855937,1.008633 1.239599,2.596291 1.894443,3.466267 0.08536,0.113395 0.204844,0.191825 0.342932,0.224624 2.832247,0.672699 8.581522,3.352936 11.234335,4.72955 0.151489,0.07861 0.263923,0.218956 0.303383,0.384998 1.232036,5.184208 -1.166951,8.758419 5.66875,8.120701 0.393162,-0.03668 0.710148,0.324264 0.624871,0.709816 -0.750225,3.391731 1.378147,1.601684 2.103927,4.039787 0.0101,0.03393 0.0177,0.06802 0.02201,0.103157 0.149285,1.219635 -0.182029,5.961548 -1.732555,6.873764 -0.29232,0.171982 -0.357994,0.571754 -0.16938,0.85363 2.458999,3.674851 -2.94941,6.808502 6.218212,5.459915 0.316025,-0.04649 0.613132,0.166161 0.666847,0.481034 0.186333,1.092247 0.594368,3.482978 0.797237,4.671577 0.06086,0.356575 0.426472,0.569611 0.76973,0.455498 3.544804,-1.178467 2.554787,1.957443 1.722572,4.326585 -0.131103,0.37322 0.132534,0.78236 0.528042,0.7899 2.212177,0.0422 2.423119,2.9274 1.560268,4.79967 -0.05268,0.11432 -0.143199,0.20483 -0.254406,0.26378 -0.936607,0.49652 -5.458103,2.89343 -6.169361,3.27048 -0.06348,0.0337 -0.118496,0.0777 -0.165764,0.13181 l -4.117694,4.71329 c -0.360623,0.41279 -0.01063,1.05104 0.531303,0.96888 l 0.573723,-0.087 c 0.203422,-0.0308 0.410545,0.0434 0.539901,0.20342 0.761414,0.94178 1.655537,3.93755 2.90083,2.57436 0.189792,-0.20777 0.490169,-0.26904 0.735286,-0.13082 1.822342,1.02753 5.129097,3.42224 6.351582,5.23861 0.188786,0.28051 0.122109,0.67371 -0.171204,0.8419 -0.60157,0.34496 -0.962162,0.99583 -1.054939,1.68727 -0.06271,0.46739 0.417778,0.81884 0.841686,0.61222 0.591492,-0.28831 1.364273,-0.66497 1.753987,-0.85492 0.156955,-0.0765 0.264637,-0.22118 0.308605,-0.39016 0.705875,-2.7127 4.187176,-5.47939 6.518963,-6.75802 0.121452,-0.0666 0.21315,-0.17063 0.264595,-0.29924 0.854004,-2.13486 2.860557,-5.26112 5.018173,-6.14565 0.150986,-0.0619 0.278786,-0.17227 0.338562,-0.3241 0.771675,-1.95996 1.005913,-5.49252 0.740776,-7.5839 -0.0221,-0.17438 0.02743,-0.34943 0.146423,-0.47881 2.398224,-2.60739 6.015831,-5.474642 9.502991,-6.412943 0.144531,-0.03889 0.266701,-0.131187 0.346939,-0.257538 3.269707,-5.148804 9.12102,0.960251 10.97986,-3.58773 0.0696,-0.170288 0.21859,-0.299538 0.39779,-0.341126 2.165,-0.50251 2.41418,-2.02948 2.53402,-4.067695 0.009,-0.160126 0.0822,-0.30835 0.20404,-0.412751 1.96881,-1.687812 4.41473,-4.311531 4.05209,-7.148773 -0.0229,-0.179504 0.0329,-0.356872 0.15637,-0.489128 3.12076,-3.341385 1.9297,-10.612449 2.01166,-14.963093 0.005,-0.256126 0.17115,-0.482761 0.41727,-0.553817 3.20364,-0.924878 4.61362,-4.622368 6.01224,-7.379769 0.0598,-0.117916 0.15626,-0.210224 0.27567,-0.266983 1.07579,-0.511348 3.14336,-0.602943 2.89282,-2.01416 -0.0324,-0.18272 0.0111,-0.369945 0.13465,-0.508411 0.61561,-0.689904 2.41859,-2.710774 2.93366,-3.28809 0.0907,-0.101673 0.13774,-0.230011 0.14713,-0.36594 0.12016,-1.739495 1.49217,-4.639431 0.78683,-6.177243 z"
   id="path2"
   style="fill:#1a1a1a" />
</svg>
