<svg xmlns="http://www.w3.org/2000/svg" height="400" width="600" viewBox="0 0 600 400"><defs><clipPath id="diagclip1"><rect x="32.96" y="8.0" width="566.04" height="365" /></clipPath><marker id="dot1" viewBox="-1 -1 18 18" refX="8" refY="8" markerWidth="16" markerHeight="16" markerUnits="userSpaceOnUse"><circle cx="8" cy="8" r="8" fill="#ba0c2f" stroke="black" stroke-width="1" /></marker></defs><rect width="100%" height="100%" fill="none" /><rect x="32.96" y="8" width="566.04" height="365" fill="#F6F6F6" stroke-width="2" stroke="none" /><path d="M 32.96,8 L 32.96,373 599,373" stroke="black" stroke-width="2" fill="none" /><path d="M 48.2584,373 L 48.2584,8" stroke="lightgray" stroke-width="1" fill="none" stroke-dasharray="3 4" /><path d="M 48.2584,373 L 48.2584,382" stroke="black" stroke-width="2" fill="none" /><path d="M 124.7503,373 L 124.7503,8" stroke="lightgray" stroke-width="1" fill="none" stroke-dasharray="3 4" /><path d="M 124.7503,373 L 124.7503,382" stroke="black" stroke-width="2" fill="none" /><path d="M 201.2422,373 L 201.2422,8" stroke="lightgray" stroke-width="1" fill="none" stroke-dasharray="3 4" /><path d="M 201.2422,373 L 201.2422,382" stroke="black" stroke-width="2" fill="none" /><path d="M 277.7341,373 L 277.7341,8" stroke="lightgray" stroke-width="1" fill="none" stroke-dasharray="3 4" /><path d="M 277.7341,373 L 277.7341,382" stroke="black" stroke-width="2" fill="none" /><path d="M 354.2259,373 L 354.2259,8" stroke="lightgray" stroke-width="1" fill="none" stroke-dasharray="3 4" /><path d="M 354.2259,373 L 354.2259,382" stroke="black" stroke-width="2" fill="none" /><path d="M 430.7178,373 L 430.7178,8" stroke="lightgray" stroke-width="1" fill="none" stroke-dasharray="3 4" /><path d="M 430.7178,373 L 430.7178,382" stroke="black" stroke-width="2" fill="none" /><path d="M 507.2097,373 L 507.2097,8" stroke="lightgray" stroke-width="1" fill="none" stroke-dasharray="3 4" /><path d="M 507.2097,373 L 507.2097,382" stroke="black" stroke-width="2" fill="none" /><path d="M 583.7016,373 L 583.7016,8" stroke="lightgray" stroke-width="1" fill="none" stroke-dasharray="3 4" /><path d="M 583.7016,373 L 583.7016,382" stroke="black" stroke-width="2" fill="none" /><path d="M 32.96,363.1351 L 599,363.1351" stroke="lightgray" stroke-width="1" fill="none" stroke-dasharray="3 4" /><path d="M 32.96,363.1351 L 23.96,363.1351" stroke="black" stroke-width="2" fill="none" /><text x="19.96" y="363.1351" fill="black" font-size="14" font-family="sans-serif" text-anchor="end" dominant-baseline="middle">5</text><path d="M 32.96,313.8108 L 599,313.8108" stroke="lightgray" stroke-width="1" fill="none" stroke-dasharray="3 4" /><path d="M 32.96,313.8108 L 23.96,313.8108" stroke="black" stroke-width="2" fill="none" /><text x="19.96" y="313.8108" fill="black" font-size="14" font-family="sans-serif" text-anchor="end" dominant-baseline="middle">10</text><path d="M 32.96,264.4865 L 599,264.4865" stroke="lightgray" stroke-width="1" fill="none" stroke-dasharray="3 4" /><path d="M 32.96,264.4865 L 23.96,264.4865" stroke="black" stroke-width="2" fill="none" /><text x="19.96" y="264.4865" fill="black" font-size="14" font-family="sans-serif" text-anchor="end" dominant-baseline="middle">15</text><path d="M 32.96,215.1622 L 599,215.1622" stroke="lightgray" stroke-width="1" fill="none" stroke-dasharray="3 4" /><path d="M 32.96,215.1622 L 23.96,215.1622" stroke="black" stroke-width="2" fill="none" /><text x="19.96" y="215.1622" fill="black" font-size="14" font-family="sans-serif" text-anchor="end" dominant-baseline="middle">20</text><path d="M 32.96,165.8378 L 599,165.8378" stroke="lightgray" stroke-width="1" fill="none" stroke-dasharray="3 4" /><path d="M 32.96,165.8378 L 23.96,165.8378" stroke="black" stroke-width="2" fill="none" /><text x="19.96" y="165.8378" fill="black" font-size="14" font-family="sans-serif" text-anchor="end" dominant-baseline="middle">25</text><path d="M 32.96,116.5135 L 599,116.5135" stroke="lightgray" stroke-width="1" fill="none" stroke-dasharray="3 4" /><path d="M 32.96,116.5135 L 23.96,116.5135" stroke="black" stroke-width="2" fill="none" /><text x="19.96" y="116.5135" fill="black" font-size="14" font-family="sans-serif" text-anchor="end" dominant-baseline="middle">30</text><path d="M 32.96,67.1892 L 599,67.1892" stroke="lightgray" stroke-width="1" fill="none" stroke-dasharray="3 4" /><path d="M 32.96,67.1892 L 23.96,67.1892" stroke="black" stroke-width="2" fill="none" /><text x="19.96" y="67.1892" fill="black" font-size="14" font-family="sans-serif" text-anchor="end" dominant-baseline="middle">35</text><path d="M 32.96,17.8649 L 599,17.8649" stroke="lightgray" stroke-width="1" fill="none" stroke-dasharray="3 4" /><path d="M 32.96,17.8649 L 23.96,17.8649" stroke="black" stroke-width="2" fill="none" /><text x="19.96" y="17.8649" fill="black" font-size="14" font-family="sans-serif" text-anchor="end" dominant-baseline="middle">40</text><path d="M 48.2584,332.5751 L 86.5043,265.469 124.7503,274.0971 162.9962,251.0798 201.2422,215.0547 239.4881,203.3097 277.7341,193.4482 315.98,190.5303 354.2259,177.0864 392.4719,157.1041 430.7178,165.8868 468.9638,131.7401 507.2097,83.1634 545.4557,54.1839 583.7016,80.0112" stroke="#ba0c2f" stroke-width="2" fill="none" marker-start="url(#dot1)" marker-mid="url(#dot1)" marker-end="url(#dot1)" clip-path="url(#diagclip1)" /><path d="M 32.96,184.9827 L 599,184.9827" stroke="#ffc600" stroke-width="2" fill="none" clip-path="url(#diagclip1)" /><text x="48.2584" y="386" fill="black" font-size="14" font-family="sans-serif" text-anchor="middle" dominant-baseline="hanging">0</text><text x="124.7503" y="386" fill="black" font-size="14" font-family="sans-serif" text-anchor="middle" dominant-baseline="hanging">2</text><text x="201.2422" y="386" fill="black" font-size="14" font-family="sans-serif" text-anchor="middle" dominant-baseline="hanging">4</text><text x="277.7341" y="386" fill="black" font-size="14" font-family="sans-serif" text-anchor="middle" dominant-baseline="hanging">6</text><text x="354.2259" y="386" fill="black" font-size="14" font-family="sans-serif" text-anchor="middle" dominant-baseline="hanging">8</text><text x="430.7178" y="386" fill="black" font-size="14" font-family="sans-serif" text-anchor="middle" dominant-baseline="hanging">10</text><text x="507.2097" y="386" fill="black" font-size="14" font-family="sans-serif" text-anchor="middle" dominant-baseline="hanging">12</text><text x="583.7016" y="386" fill="black" font-size="14" font-family="sans-serif" text-anchor="middle" dominant-baseline="hanging">14</text></svg>